<svg width="343" height="63" viewBox="0 0 343 63" fill="none" xmlns="http://www.w3.org/2000/svg">
<path d="M4.12598 13.4531H15.8936C18.5628 13.4531 20.8171 13.86 22.6562 14.6738C24.5117 15.4876 25.9196 16.6921 26.8799 18.2871C27.8564 19.8659 28.3447 21.8109 28.3447 24.1221C28.3447 25.7497 28.0111 27.2389 27.3438 28.5898C26.6927 29.9245 25.7487 31.0638 24.5117 32.0078C23.291 32.9355 21.8262 33.6273 20.1172 34.083L18.7988 34.5957H7.73926L7.69043 30.7627H16.04C17.7327 30.7627 19.1406 30.4697 20.2637 29.8838C21.3867 29.2816 22.2331 28.4759 22.8027 27.4668C23.3724 26.4577 23.6572 25.3428 23.6572 24.1221C23.6572 22.7549 23.3887 21.5586 22.8516 20.5332C22.3145 19.5078 21.4681 18.7184 20.3125 18.165C19.1732 17.5954 17.7002 17.3105 15.8936 17.3105H8.83789V49H4.12598V13.4531ZM24.9023 49L16.2598 32.8867L21.167 32.8623L29.9316 48.707V49H24.9023ZM55.2734 13.4531H59.9609V37.501C59.9609 40.1702 59.3669 42.3919 58.1787 44.166C56.9906 45.9401 55.4118 47.2747 53.4424 48.1699C51.4893 49.0488 49.3652 49.4883 47.0703 49.4883C44.6615 49.4883 42.4805 49.0488 40.5273 48.1699C38.5905 47.2747 37.0524 45.9401 35.9131 44.166C34.79 42.3919 34.2285 40.1702 34.2285 37.501V13.4531H38.8916V37.501C38.8916 39.3564 39.2334 40.8864 39.917 42.0908C40.6006 43.2952 41.5527 44.1904 42.7734 44.7764C44.0104 45.3623 45.4427 45.6553 47.0703 45.6553C48.7142 45.6553 50.1465 45.3623 51.3672 44.7764C52.6042 44.1904 53.5645 43.2952 54.248 42.0908C54.9316 40.8864 55.2734 39.3564 55.2734 37.501V13.4531ZM80.0293 32.374H71.0205L70.9717 28.5898H79.1504C80.5013 28.5898 81.6813 28.362 82.6904 27.9062C83.6995 27.4505 84.4808 26.7995 85.0342 25.9531C85.6038 25.0905 85.8887 24.0651 85.8887 22.877C85.8887 21.5749 85.6364 20.5169 85.1318 19.7031C84.6436 18.873 83.8867 18.2708 82.8613 17.8965C81.8522 17.5059 80.5664 17.3105 79.0039 17.3105H72.0703V49H67.3584V13.4531H79.0039C80.8268 13.4531 82.4544 13.6403 83.8867 14.0146C85.319 14.3727 86.5316 14.9424 87.5244 15.7236C88.5335 16.4886 89.2985 17.4652 89.8193 18.6533C90.3402 19.8415 90.6006 21.2656 90.6006 22.9258C90.6006 24.3906 90.2262 25.7171 89.4775 26.9053C88.7288 28.0771 87.6872 29.0374 86.3525 29.7861C85.0342 30.5348 83.488 31.015 81.7139 31.2266L80.0293 32.374ZM79.8096 49H69.165L71.8262 45.167H79.8096C81.307 45.167 82.5765 44.9066 83.6182 44.3857C84.6761 43.8649 85.4818 43.1325 86.0352 42.1885C86.5885 41.2282 86.8652 40.097 86.8652 38.7949C86.8652 37.4766 86.6292 36.3372 86.1572 35.377C85.6852 34.4167 84.9447 33.6761 83.9355 33.1553C82.9264 32.6344 81.6243 32.374 80.0293 32.374H73.3154L73.3643 28.5898H82.5439L83.5449 29.957C85.2539 30.1035 86.7025 30.5918 87.8906 31.4219C89.0788 32.2357 89.9821 33.2773 90.6006 34.5469C91.2354 35.8164 91.5527 37.2161 91.5527 38.7461C91.5527 40.9596 91.0645 42.8314 90.0879 44.3613C89.1276 45.875 87.7686 47.0306 86.0107 47.8281C84.2529 48.6094 82.1859 49 79.8096 49ZM103.564 13.4531V49H98.8525V13.4531H103.564Z" fill="black"/>
<g clip-path="url(#clip0_8_70)">
<path fill-rule="evenodd" clip-rule="evenodd" d="M158.876 33.7469L162.875 40.7001L166.874 47.6533L170.874 40.7003L174.873 33.7474L166.875 33.7472L158.876 33.7469Z" stroke="#9D9E9E" stroke-width="1.93898" stroke-miterlimit="22.9256" stroke-linejoin="round"/>
<path fill-rule="evenodd" clip-rule="evenodd" d="M151.123 29.2532H143.124L135.126 29.2532L139.125 22.3002L143.124 15.3471L147.124 22.3002L151.123 29.2532Z" stroke="#50B8C5" stroke-width="1.93898" stroke-miterlimit="22.9256" stroke-linejoin="round"/>
<path fill-rule="evenodd" clip-rule="evenodd" d="M155 27.0063L158.999 20.0534L162.999 13.1004L155 13.1002L147.002 13.1001L151.001 20.0532L155 27.0063Z" stroke="#50B8C5" stroke-width="1.93898" stroke-miterlimit="22.9256" stroke-linejoin="round"/>
<path fill-rule="evenodd" clip-rule="evenodd" d="M158.876 29.2531L162.876 22.3001L166.875 15.347L170.874 22.3001L174.873 29.2531H166.875H158.876Z" stroke="#9D9E9E" stroke-width="1.93898" stroke-miterlimit="22.9256" stroke-linejoin="round"/>
<path fill-rule="evenodd" clip-rule="evenodd" d="M151.123 33.7467L143.124 33.7465L135.126 33.7463L139.125 40.6994L143.124 47.6526L147.123 40.6997L151.123 33.7467Z" stroke="#50B8C5" stroke-width="1.93898" stroke-miterlimit="22.9256" stroke-linejoin="round"/>
<path fill-rule="evenodd" clip-rule="evenodd" d="M155 35.9937L158.999 42.9467L162.998 49.8998H155H147.001L151.001 42.9467L155 35.9937Z" stroke="#9D9E9E" stroke-width="1.93898" stroke-miterlimit="22.9256" stroke-linejoin="round"/>
<path fill-rule="evenodd" clip-rule="evenodd" d="M168.936 51.2376L172.873 58.083L181.201 46.6785L186.871 33.7477L179.022 33.7476L168.936 51.2376Z" stroke="#9D9E9E" stroke-width="1.93898" stroke-miterlimit="7.6613" stroke-linejoin="round"/>
<path fill-rule="evenodd" clip-rule="evenodd" d="M131.003 29.2531L123.128 29.2532L128.804 16.311L137.126 4.91754L141.05 11.7401L131.003 29.2531Z" stroke="#50B8C5" stroke-width="1.93898" stroke-miterlimit="7.6613" stroke-linejoin="round"/>
<path fill-rule="evenodd" clip-rule="evenodd" d="M165.06 9.51609L168.998 2.671L154.994 1.1332L141.003 2.67025L144.927 9.49297L165.06 9.51609Z" stroke="#50B8C5" stroke-width="1.93898" stroke-miterlimit="7.6613" stroke-linejoin="round"/>
<path fill-rule="evenodd" clip-rule="evenodd" d="M168.937 11.7628L172.874 4.91745L181.202 16.3222L186.871 29.2531H179.022L168.937 11.7628Z" stroke="#9D9E9E" stroke-width="1.93898" stroke-miterlimit="7.6613" stroke-linejoin="round"/>
<path fill-rule="evenodd" clip-rule="evenodd" d="M131.003 33.7463L123.128 33.746L128.804 46.6884L137.125 58.082L141.049 51.2596L131.003 33.7463Z" stroke="#50B8C5" stroke-width="1.93898" stroke-miterlimit="7.6613" stroke-linejoin="round"/>
<path fill-rule="evenodd" clip-rule="evenodd" d="M165.059 53.4842L168.997 60.3294L154.993 61.8668L141.002 60.3294L144.927 53.5068L165.059 53.4842Z" stroke="#9D9E9E" stroke-width="1.93898" stroke-miterlimit="7.6613" stroke-linejoin="round"/>
</g>
<path d="M207.607 25.1934V19.7539C207.607 19.3372 207.523 18.9759 207.354 18.6699C207.191 18.3574 206.943 18.1165 206.611 17.9473C206.279 17.778 205.869 17.6934 205.381 17.6934C204.925 17.6934 204.525 17.7715 204.18 17.9277C203.841 18.084 203.574 18.2891 203.379 18.543C203.19 18.7969 203.096 19.0703 203.096 19.3633H201.289C201.289 18.9857 201.387 18.6113 201.582 18.2402C201.777 17.8691 202.057 17.5339 202.422 17.2344C202.793 16.9284 203.236 16.6875 203.75 16.5117C204.271 16.3294 204.85 16.2383 205.488 16.2383C206.257 16.2383 206.934 16.3685 207.52 16.6289C208.112 16.8893 208.574 17.2832 208.906 17.8105C209.245 18.3314 209.414 18.9857 209.414 19.7734V24.6953C209.414 25.0469 209.443 25.4212 209.502 25.8184C209.567 26.2155 209.661 26.5573 209.785 26.8438V27H207.9C207.809 26.7917 207.738 26.515 207.686 26.1699C207.633 25.8184 207.607 25.4928 207.607 25.1934ZM207.92 20.5938L207.939 21.8633H206.113C205.599 21.8633 205.14 21.9056 204.736 21.9902C204.333 22.0684 203.994 22.1888 203.721 22.3516C203.447 22.5143 203.239 22.7194 203.096 22.9668C202.952 23.2077 202.881 23.4909 202.881 23.8164C202.881 24.1484 202.956 24.4512 203.105 24.7246C203.255 24.998 203.48 25.2161 203.779 25.3789C204.085 25.5352 204.46 25.6133 204.902 25.6133C205.456 25.6133 205.944 25.4961 206.367 25.2617C206.79 25.0273 207.126 24.7409 207.373 24.4023C207.627 24.0638 207.764 23.735 207.783 23.416L208.555 24.2852C208.509 24.5586 208.385 24.8613 208.184 25.1934C207.982 25.5254 207.712 25.8444 207.373 26.1504C207.041 26.4499 206.644 26.7005 206.182 26.9023C205.726 27.0977 205.212 27.1953 204.639 27.1953C203.923 27.1953 203.294 27.0553 202.754 26.7754C202.22 26.4954 201.803 26.1211 201.504 25.6523C201.211 25.1771 201.064 24.6465 201.064 24.0605C201.064 23.4941 201.175 22.9961 201.396 22.5664C201.618 22.1302 201.937 21.7689 202.354 21.4824C202.77 21.1895 203.271 20.9681 203.857 20.8184C204.443 20.6686 205.098 20.5938 205.82 20.5938H207.92ZM219.424 21.0137V22.4785H213.838V21.0137H219.424ZM214.219 16.4336V27H212.412V16.4336H214.219ZM220.889 16.4336V27H219.072V16.4336H220.889ZM230.029 25.1934V19.7539C230.029 19.3372 229.945 18.9759 229.775 18.6699C229.613 18.3574 229.365 18.1165 229.033 17.9473C228.701 17.778 228.291 17.6934 227.803 17.6934C227.347 17.6934 226.947 17.7715 226.602 17.9277C226.263 18.084 225.996 18.2891 225.801 18.543C225.612 18.7969 225.518 19.0703 225.518 19.3633H223.711C223.711 18.9857 223.809 18.6113 224.004 18.2402C224.199 17.8691 224.479 17.5339 224.844 17.2344C225.215 16.9284 225.658 16.6875 226.172 16.5117C226.693 16.3294 227.272 16.2383 227.91 16.2383C228.678 16.2383 229.355 16.3685 229.941 16.6289C230.534 16.8893 230.996 17.2832 231.328 17.8105C231.667 18.3314 231.836 18.9857 231.836 19.7734V24.6953C231.836 25.0469 231.865 25.4212 231.924 25.8184C231.989 26.2155 232.083 26.5573 232.207 26.8438V27H230.322C230.231 26.7917 230.16 26.515 230.107 26.1699C230.055 25.8184 230.029 25.4928 230.029 25.1934ZM230.342 20.5938L230.361 21.8633H228.535C228.021 21.8633 227.562 21.9056 227.158 21.9902C226.755 22.0684 226.416 22.1888 226.143 22.3516C225.869 22.5143 225.661 22.7194 225.518 22.9668C225.374 23.2077 225.303 23.4909 225.303 23.8164C225.303 24.1484 225.378 24.4512 225.527 24.7246C225.677 24.998 225.902 25.2161 226.201 25.3789C226.507 25.5352 226.882 25.6133 227.324 25.6133C227.878 25.6133 228.366 25.4961 228.789 25.2617C229.212 25.0273 229.548 24.7409 229.795 24.4023C230.049 24.0638 230.186 23.735 230.205 23.416L230.977 24.2852C230.931 24.5586 230.807 24.8613 230.605 25.1934C230.404 25.5254 230.133 25.8444 229.795 26.1504C229.463 26.4499 229.066 26.7005 228.604 26.9023C228.148 27.0977 227.633 27.1953 227.061 27.1953C226.344 27.1953 225.716 27.0553 225.176 26.7754C224.642 26.4954 224.225 26.1211 223.926 25.6523C223.633 25.1771 223.486 24.6465 223.486 24.0605C223.486 23.4941 223.597 22.9961 223.818 22.5664C224.04 22.1302 224.359 21.7689 224.775 21.4824C225.192 21.1895 225.693 20.9681 226.279 20.8184C226.865 20.6686 227.52 20.5938 228.242 20.5938H230.342ZM241.738 16.4336V17.9277H236.631V16.4336H241.738ZM243.33 16.4336V27H241.523V16.4336H243.33ZM236.191 16.4336H238.008L237.734 21.5312C237.689 22.319 237.614 23.0156 237.51 23.6211C237.412 24.2201 237.275 24.7344 237.1 25.1641C236.93 25.5938 236.715 25.9453 236.455 26.2188C236.201 26.4857 235.895 26.6842 235.537 26.8145C235.179 26.9382 234.766 27 234.297 27H233.73V25.4082L234.121 25.3789C234.401 25.3594 234.639 25.2943 234.834 25.1836C235.036 25.0729 235.205 24.9102 235.342 24.6953C235.479 24.474 235.589 24.1908 235.674 23.8457C235.765 23.5007 235.833 23.0905 235.879 22.6152C235.931 22.14 235.97 21.5866 235.996 20.9551L236.191 16.4336ZM248.193 24.1387L253.066 16.4336H254.883V27H253.066V19.2949L248.193 27H246.396V16.4336H248.193V24.1387ZM262.09 16.4336V27H260.273V16.4336H262.09ZM265.635 16.4336V17.8984H256.797V16.4336H265.635ZM269.365 24.1387L274.238 16.4336H276.055V27H274.238V19.2949L269.365 27H267.568V16.4336H269.365V24.1387ZM286.924 16.4336V27H285.117V16.4336H286.924ZM286.309 21.2871V22.7715C285.944 22.9082 285.573 23.0319 285.195 23.1426C284.824 23.2467 284.43 23.3314 284.014 23.3965C283.604 23.4551 283.158 23.4844 282.676 23.4844C281.842 23.4844 281.12 23.3411 280.508 23.0547C279.896 22.7617 279.424 22.3223 279.092 21.7363C278.76 21.1439 278.594 20.3984 278.594 19.5V16.4141H280.4V19.5C280.4 20.0859 280.488 20.5612 280.664 20.9258C280.84 21.2904 281.097 21.5605 281.436 21.7363C281.774 21.9056 282.188 21.9902 282.676 21.9902C283.145 21.9902 283.584 21.9609 283.994 21.9023C284.411 21.8372 284.808 21.7526 285.186 21.6484C285.57 21.5443 285.944 21.4238 286.309 21.2871ZM294.219 27.1953C293.483 27.1953 292.816 27.0716 292.217 26.8242C291.624 26.5703 291.113 26.2155 290.684 25.7598C290.26 25.304 289.935 24.7637 289.707 24.1387C289.479 23.5137 289.365 22.8301 289.365 22.0879V21.6777C289.365 20.8184 289.492 20.0534 289.746 19.3828C290 18.7057 290.345 18.1328 290.781 17.6641C291.217 17.1953 291.712 16.8405 292.266 16.5996C292.819 16.3587 293.392 16.2383 293.984 16.2383C294.74 16.2383 295.391 16.3685 295.938 16.6289C296.491 16.8893 296.943 17.2539 297.295 17.7227C297.646 18.1849 297.907 18.7318 298.076 19.3633C298.245 19.9883 298.33 20.6719 298.33 21.4141V22.2246H290.439V20.75H296.523V20.6133C296.497 20.1445 296.4 19.6888 296.23 19.2461C296.068 18.8034 295.807 18.4388 295.449 18.1523C295.091 17.8659 294.603 17.7227 293.984 17.7227C293.574 17.7227 293.197 17.8105 292.852 17.9863C292.507 18.1556 292.21 18.4095 291.963 18.748C291.715 19.0866 291.523 19.5 291.387 19.9883C291.25 20.4766 291.182 21.0397 291.182 21.6777V22.0879C291.182 22.5892 291.25 23.0612 291.387 23.5039C291.53 23.9401 291.735 24.3242 292.002 24.6562C292.275 24.9883 292.604 25.2487 292.988 25.4375C293.379 25.6263 293.822 25.7207 294.316 25.7207C294.954 25.7207 295.495 25.5905 295.938 25.3301C296.38 25.0697 296.768 24.7214 297.1 24.2852L298.193 25.1543C297.965 25.4993 297.676 25.8281 297.324 26.1406C296.973 26.4531 296.54 26.707 296.025 26.9023C295.518 27.0977 294.915 27.1953 294.219 27.1953ZM304.668 25.7109C305.098 25.7109 305.495 25.623 305.859 25.4473C306.224 25.2715 306.523 25.0306 306.758 24.7246C306.992 24.4121 307.126 24.0573 307.158 23.6602H308.877C308.844 24.2852 308.633 24.8678 308.242 25.4082C307.858 25.9421 307.354 26.375 306.729 26.707C306.104 27.0326 305.417 27.1953 304.668 27.1953C303.874 27.1953 303.18 27.0553 302.588 26.7754C302.002 26.4954 301.514 26.1113 301.123 25.623C300.739 25.1348 300.449 24.5749 300.254 23.9434C300.065 23.3053 299.971 22.6315 299.971 21.9219V21.5117C299.971 20.8021 300.065 20.1315 300.254 19.5C300.449 18.862 300.739 18.2988 301.123 17.8105C301.514 17.3223 302.002 16.9382 302.588 16.6582C303.18 16.3783 303.874 16.2383 304.668 16.2383C305.495 16.2383 306.217 16.4076 306.836 16.7461C307.454 17.0781 307.939 17.5339 308.291 18.1133C308.649 18.6862 308.844 19.3372 308.877 20.0664H307.158C307.126 19.6302 307.002 19.2363 306.787 18.8848C306.579 18.5332 306.292 18.2533 305.928 18.0449C305.57 17.8301 305.15 17.7227 304.668 17.7227C304.115 17.7227 303.649 17.8333 303.271 18.0547C302.9 18.2695 302.604 18.5625 302.383 18.9336C302.168 19.2982 302.012 19.7051 301.914 20.1543C301.823 20.597 301.777 21.0495 301.777 21.5117V21.9219C301.777 22.3841 301.823 22.8398 301.914 23.2891C302.005 23.7383 302.158 24.1452 302.373 24.5098C302.594 24.8743 302.891 25.1673 303.262 25.3887C303.639 25.6035 304.108 25.7109 304.668 25.7109ZM312.871 16.4336V27H311.064V16.4336H312.871ZM319.805 16.4336L314.795 22.4883H312.266L311.992 20.9062H314.062L317.607 16.4336H319.805ZM317.861 27L313.975 22.2148L315.137 20.9062L320.156 27H317.861ZM327.959 25.1934V19.7539C327.959 19.3372 327.874 18.9759 327.705 18.6699C327.542 18.3574 327.295 18.1165 326.963 17.9473C326.631 17.778 326.221 17.6934 325.732 17.6934C325.277 17.6934 324.876 17.7715 324.531 17.9277C324.193 18.084 323.926 18.2891 323.73 18.543C323.542 18.7969 323.447 19.0703 323.447 19.3633H321.641C321.641 18.9857 321.738 18.6113 321.934 18.2402C322.129 17.8691 322.409 17.5339 322.773 17.2344C323.145 16.9284 323.587 16.6875 324.102 16.5117C324.622 16.3294 325.202 16.2383 325.84 16.2383C326.608 16.2383 327.285 16.3685 327.871 16.6289C328.464 16.8893 328.926 17.2832 329.258 17.8105C329.596 18.3314 329.766 18.9857 329.766 19.7734V24.6953C329.766 25.0469 329.795 25.4212 329.854 25.8184C329.919 26.2155 330.013 26.5573 330.137 26.8438V27H328.252C328.161 26.7917 328.089 26.515 328.037 26.1699C327.985 25.8184 327.959 25.4928 327.959 25.1934ZM328.271 20.5938L328.291 21.8633H326.465C325.951 21.8633 325.492 21.9056 325.088 21.9902C324.684 22.0684 324.346 22.1888 324.072 22.3516C323.799 22.5143 323.59 22.7194 323.447 22.9668C323.304 23.2077 323.232 23.4909 323.232 23.8164C323.232 24.1484 323.307 24.4512 323.457 24.7246C323.607 24.998 323.831 25.2161 324.131 25.3789C324.437 25.5352 324.811 25.6133 325.254 25.6133C325.807 25.6133 326.296 25.4961 326.719 25.2617C327.142 25.0273 327.477 24.7409 327.725 24.4023C327.979 24.0638 328.115 23.735 328.135 23.416L328.906 24.2852C328.861 24.5586 328.737 24.8613 328.535 25.1934C328.333 25.5254 328.063 25.8444 327.725 26.1504C327.393 26.4499 326.995 26.7005 326.533 26.9023C326.077 27.0977 325.563 27.1953 324.99 27.1953C324.274 27.1953 323.646 27.0553 323.105 26.7754C322.572 26.4954 322.155 26.1211 321.855 25.6523C321.562 25.1771 321.416 24.6465 321.416 24.0605C321.416 23.4941 321.527 22.9961 321.748 22.5664C321.969 22.1302 322.288 21.7689 322.705 21.4824C323.122 21.1895 323.623 20.9681 324.209 20.8184C324.795 20.6686 325.449 20.5938 326.172 20.5938H328.271ZM334.746 21.9609H336.699L333.643 27H331.689L334.746 21.9609ZM336.26 16.4336H340.674V27H338.867V17.8984H336.26C335.745 17.8984 335.326 17.9863 335 18.1621C334.674 18.3314 334.437 18.5527 334.287 18.8262C334.137 19.0996 334.062 19.3828 334.062 19.6758C334.062 19.9622 334.131 20.2389 334.268 20.5059C334.404 20.7663 334.619 20.9811 334.912 21.1504C335.205 21.3197 335.583 21.4043 336.045 21.4043H339.355V22.8887H336.045C335.439 22.8887 334.902 22.8073 334.434 22.6445C333.965 22.4818 333.568 22.2572 333.242 21.9707C332.917 21.6777 332.669 21.3359 332.5 20.9453C332.331 20.5482 332.246 20.1185 332.246 19.6562C332.246 19.194 332.334 18.7676 332.51 18.377C332.692 17.9863 332.952 17.6445 333.291 17.3516C333.636 17.0586 334.056 16.834 334.551 16.6777C335.052 16.515 335.622 16.4336 336.26 16.4336ZM208.418 39.4336V40.9277H203.076V39.4336H208.418ZM203.34 39.4336V50H201.533V39.4336H203.34ZM210.02 39.4336V50H208.203V39.4336H210.02ZM219.98 39.4336V40.9277H214.873V39.4336H219.98ZM221.572 39.4336V50H219.766V39.4336H221.572ZM214.434 39.4336H216.25L215.977 44.5312C215.931 45.319 215.856 46.0156 215.752 46.6211C215.654 47.2201 215.518 47.7344 215.342 48.1641C215.173 48.5938 214.958 48.9453 214.697 49.2188C214.443 49.4857 214.137 49.6842 213.779 49.8145C213.421 49.9382 213.008 50 212.539 50H211.973V48.4082L212.363 48.3789C212.643 48.3594 212.881 48.2943 213.076 48.1836C213.278 48.0729 213.447 47.9102 213.584 47.6953C213.721 47.474 213.831 47.1908 213.916 46.8457C214.007 46.5007 214.076 46.0905 214.121 45.6152C214.173 45.14 214.212 44.5866 214.238 43.9551L214.434 39.4336ZM230.713 48.1934V42.7539C230.713 42.3372 230.628 41.9759 230.459 41.6699C230.296 41.3574 230.049 41.1165 229.717 40.9473C229.385 40.778 228.975 40.6934 228.486 40.6934C228.031 40.6934 227.63 40.7715 227.285 40.9277C226.947 41.084 226.68 41.2891 226.484 41.543C226.296 41.7969 226.201 42.0703 226.201 42.3633H224.395C224.395 41.9857 224.492 41.6113 224.688 41.2402C224.883 40.8691 225.163 40.5339 225.527 40.2344C225.898 39.9284 226.341 39.6875 226.855 39.5117C227.376 39.3294 227.956 39.2383 228.594 39.2383C229.362 39.2383 230.039 39.3685 230.625 39.6289C231.217 39.8893 231.68 40.2832 232.012 40.8105C232.35 41.3314 232.52 41.9857 232.52 42.7734V47.6953C232.52 48.0469 232.549 48.4212 232.607 48.8184C232.673 49.2155 232.767 49.5573 232.891 49.8438V50H231.006C230.915 49.7917 230.843 49.515 230.791 49.1699C230.739 48.8184 230.713 48.4928 230.713 48.1934ZM231.025 43.5938L231.045 44.8633H229.219C228.704 44.8633 228.245 44.9056 227.842 44.9902C227.438 45.0684 227.1 45.1888 226.826 45.3516C226.553 45.5143 226.344 45.7194 226.201 45.9668C226.058 46.2077 225.986 46.4909 225.986 46.8164C225.986 47.1484 226.061 47.4512 226.211 47.7246C226.361 47.998 226.585 48.2161 226.885 48.3789C227.191 48.5352 227.565 48.6133 228.008 48.6133C228.561 48.6133 229.049 48.4961 229.473 48.2617C229.896 48.0273 230.231 47.7409 230.479 47.4023C230.732 47.0638 230.869 46.735 230.889 46.416L231.66 47.2852C231.615 47.5586 231.491 47.8613 231.289 48.1934C231.087 48.5254 230.817 48.8444 230.479 49.1504C230.146 49.4499 229.749 49.7005 229.287 49.9023C228.831 50.0977 228.317 50.1953 227.744 50.1953C227.028 50.1953 226.4 50.0553 225.859 49.7754C225.326 49.4954 224.909 49.1211 224.609 48.6523C224.316 48.1771 224.17 47.6465 224.17 47.0605C224.17 46.4941 224.281 45.9961 224.502 45.5664C224.723 45.1302 225.042 44.7689 225.459 44.4824C225.876 44.1895 226.377 43.9681 226.963 43.8184C227.549 43.6686 228.203 43.5938 228.926 43.5938H231.025ZM239.512 39.4336V50H237.695V39.4336H239.512ZM243.057 39.4336V40.8984H234.219V39.4336H243.057ZM256.201 44.9023V45.1074C256.201 45.8496 256.12 46.5332 255.957 47.1582C255.794 47.7767 255.55 48.3138 255.225 48.7695C254.906 49.2253 254.508 49.5801 254.033 49.834C253.558 50.0814 253.008 50.2051 252.383 50.2051C251.868 50.2051 251.416 50.1367 251.025 50C250.635 49.8568 250.303 49.6517 250.029 49.3848C249.762 49.1178 249.548 48.7988 249.385 48.4277C249.229 48.0501 249.121 47.627 249.062 47.1582V42.4707C249.121 41.9694 249.229 41.5202 249.385 41.123C249.548 40.7259 249.762 40.3874 250.029 40.1074C250.303 39.8275 250.632 39.6126 251.016 39.4629C251.4 39.3132 251.849 39.2383 252.363 39.2383C252.871 39.2383 253.327 39.3294 253.73 39.5117C254.141 39.6875 254.499 39.9414 254.805 40.2734C255.117 40.6055 255.374 41.0059 255.576 41.4746C255.785 41.9368 255.941 42.4577 256.045 43.0371C256.149 43.6165 256.201 44.2383 256.201 44.9023ZM254.395 45.1074V44.9023C254.395 44.4466 254.362 44.0137 254.297 43.6035C254.238 43.1868 254.144 42.806 254.014 42.4609C253.89 42.1094 253.727 41.8034 253.525 41.543C253.324 41.2826 253.079 41.0807 252.793 40.9375C252.513 40.7943 252.191 40.7227 251.826 40.7227C251.436 40.7227 251.11 40.7715 250.85 40.8691C250.596 40.9668 250.397 41.097 250.254 41.2598C250.111 41.416 250.007 41.582 249.941 41.7578V47.8809C250.02 48.0241 250.133 48.1608 250.283 48.291C250.433 48.4147 250.635 48.5189 250.889 48.6035C251.143 48.6816 251.462 48.7207 251.846 48.7207C252.301 48.7207 252.689 48.6296 253.008 48.4473C253.333 48.2585 253.597 47.998 253.799 47.666C254.007 47.334 254.157 46.9499 254.248 46.5137C254.346 46.0775 254.395 45.6087 254.395 45.1074ZM243.652 45.1074V44.9023C243.652 44.2383 243.704 43.6165 243.809 43.0371C243.913 42.4577 244.069 41.9368 244.277 41.4746C244.486 41.0059 244.743 40.6055 245.049 40.2734C245.361 39.9414 245.719 39.6875 246.123 39.5117C246.533 39.3294 246.992 39.2383 247.5 39.2383C248.001 39.2383 248.438 39.3132 248.809 39.4629C249.186 39.6126 249.505 39.8275 249.766 40.1074C250.026 40.3874 250.234 40.7259 250.391 41.123C250.547 41.5202 250.658 41.9694 250.723 42.4707V46.9727C250.664 47.4674 250.557 47.9134 250.4 48.3105C250.244 48.7077 250.036 49.0495 249.775 49.3359C249.515 49.6159 249.193 49.8307 248.809 49.9805C248.431 50.1302 247.988 50.2051 247.48 50.2051C246.855 50.2051 246.305 50.0814 245.83 49.834C245.355 49.5801 244.954 49.2253 244.629 48.7695C244.31 48.3138 244.066 47.7767 243.896 47.1582C243.734 46.5332 243.652 45.8496 243.652 45.1074ZM245.469 44.9023V45.1074C245.469 45.6087 245.511 46.0775 245.596 46.5137C245.687 46.9499 245.827 47.334 246.016 47.666C246.211 47.998 246.465 48.2585 246.777 48.4473C247.09 48.6296 247.474 48.7207 247.93 48.7207C248.32 48.7207 248.643 48.6719 248.896 48.5742C249.15 48.4766 249.352 48.3496 249.502 48.1934C249.652 48.0371 249.766 47.8743 249.844 47.7051V41.7578C249.779 41.582 249.671 41.416 249.521 41.2598C249.378 41.097 249.18 40.9668 248.926 40.8691C248.672 40.7715 248.346 40.7227 247.949 40.7227C247.493 40.7227 247.106 40.8333 246.787 41.0547C246.468 41.276 246.211 41.5788 246.016 41.9629C245.827 42.347 245.687 42.793 245.596 43.3008C245.511 43.8021 245.469 44.3359 245.469 44.9023ZM248.945 54.0625V35H250.762V54.0625H248.945ZM258.086 44.834V44.6094C258.086 43.8477 258.197 43.1413 258.418 42.4902C258.639 41.8327 258.958 41.263 259.375 40.7812C259.792 40.293 260.296 39.9154 260.889 39.6484C261.481 39.375 262.145 39.2383 262.881 39.2383C263.623 39.2383 264.29 39.375 264.883 39.6484C265.482 39.9154 265.99 40.293 266.406 40.7812C266.829 41.263 267.152 41.8327 267.373 42.4902C267.594 43.1413 267.705 43.8477 267.705 44.6094V44.834C267.705 45.5957 267.594 46.3021 267.373 46.9531C267.152 47.6042 266.829 48.1738 266.406 48.6621C265.99 49.1439 265.485 49.5215 264.893 49.7949C264.307 50.0618 263.643 50.1953 262.9 50.1953C262.158 50.1953 261.491 50.0618 260.898 49.7949C260.306 49.5215 259.798 49.1439 259.375 48.6621C258.958 48.1738 258.639 47.6042 258.418 46.9531C258.197 46.3021 258.086 45.5957 258.086 44.834ZM259.893 44.6094V44.834C259.893 45.3613 259.954 45.8594 260.078 46.3281C260.202 46.7904 260.387 47.2005 260.635 47.5586C260.889 47.9167 261.204 48.1999 261.582 48.4082C261.96 48.61 262.399 48.7109 262.9 48.7109C263.395 48.7109 263.828 48.61 264.199 48.4082C264.577 48.1999 264.889 47.9167 265.137 47.5586C265.384 47.2005 265.57 46.7904 265.693 46.3281C265.824 45.8594 265.889 45.3613 265.889 44.834V44.6094C265.889 44.0885 265.824 43.597 265.693 43.1348C265.57 42.666 265.381 42.2526 265.127 41.8945C264.88 41.5299 264.567 41.2435 264.189 41.0352C263.818 40.8268 263.382 40.7227 262.881 40.7227C262.386 40.7227 261.95 40.8268 261.572 41.0352C261.201 41.2435 260.889 41.5299 260.635 41.8945C260.387 42.2526 260.202 42.666 260.078 43.1348C259.954 43.597 259.893 44.0885 259.893 44.6094ZM271.777 41.4648V54.0625H269.961V39.4336H271.621L271.777 41.4648ZM278.896 44.6289V44.834C278.896 45.6022 278.805 46.3151 278.623 46.9727C278.441 47.6237 278.174 48.1901 277.822 48.6719C277.477 49.1536 277.051 49.528 276.543 49.7949C276.035 50.0618 275.452 50.1953 274.795 50.1953C274.124 50.1953 273.532 50.0846 273.018 49.8633C272.503 49.6419 272.067 49.3197 271.709 48.8965C271.351 48.4733 271.064 47.9655 270.85 47.373C270.641 46.7806 270.498 46.1133 270.42 45.3711V44.2773C270.498 43.4961 270.645 42.7962 270.859 42.1777C271.074 41.5592 271.357 41.0319 271.709 40.5957C272.067 40.153 272.5 39.8177 273.008 39.5898C273.516 39.3555 274.102 39.2383 274.766 39.2383C275.43 39.2383 276.019 39.3685 276.533 39.6289C277.048 39.8828 277.48 40.2474 277.832 40.7227C278.184 41.1979 278.447 41.7676 278.623 42.4316C278.805 43.0892 278.896 43.8216 278.896 44.6289ZM277.08 44.834V44.6289C277.08 44.1016 277.025 43.6068 276.914 43.1445C276.803 42.6758 276.631 42.2656 276.396 41.9141C276.169 41.556 275.876 41.276 275.518 41.0742C275.16 40.8659 274.733 40.7617 274.238 40.7617C273.783 40.7617 273.385 40.8398 273.047 40.9961C272.715 41.1523 272.432 41.3639 272.197 41.6309C271.963 41.8913 271.771 42.1908 271.621 42.5293C271.478 42.8613 271.37 43.2064 271.299 43.5645V46.0938C271.429 46.5495 271.611 46.9792 271.846 47.3828C272.08 47.7799 272.393 48.1022 272.783 48.3496C273.174 48.5905 273.665 48.7109 274.258 48.7109C274.746 48.7109 275.166 48.61 275.518 48.4082C275.876 48.1999 276.169 47.9167 276.396 47.5586C276.631 47.2005 276.803 46.7904 276.914 46.3281C277.025 45.8594 277.08 45.3613 277.08 44.834ZM287.275 47.5977L290.869 39.4336H292.607L287.9 50H286.65L281.963 39.4336H283.701L287.275 47.5977ZM283.174 39.4336V50H281.367V39.4336H283.174ZM291.318 50V39.4336H293.135V50H291.318ZM302.275 48.1934V42.7539C302.275 42.3372 302.191 41.9759 302.021 41.6699C301.859 41.3574 301.611 41.1165 301.279 40.9473C300.947 40.778 300.537 40.6934 300.049 40.6934C299.593 40.6934 299.193 40.7715 298.848 40.9277C298.509 41.084 298.242 41.2891 298.047 41.543C297.858 41.7969 297.764 42.0703 297.764 42.3633H295.957C295.957 41.9857 296.055 41.6113 296.25 41.2402C296.445 40.8691 296.725 40.5339 297.09 40.2344C297.461 39.9284 297.904 39.6875 298.418 39.5117C298.939 39.3294 299.518 39.2383 300.156 39.2383C300.924 39.2383 301.602 39.3685 302.188 39.6289C302.78 39.8893 303.242 40.2832 303.574 40.8105C303.913 41.3314 304.082 41.9857 304.082 42.7734V47.6953C304.082 48.0469 304.111 48.4212 304.17 48.8184C304.235 49.2155 304.329 49.5573 304.453 49.8438V50H302.568C302.477 49.7917 302.406 49.515 302.354 49.1699C302.301 48.8184 302.275 48.4928 302.275 48.1934ZM302.588 43.5938L302.607 44.8633H300.781C300.267 44.8633 299.808 44.9056 299.404 44.9902C299.001 45.0684 298.662 45.1888 298.389 45.3516C298.115 45.5143 297.907 45.7194 297.764 45.9668C297.62 46.2077 297.549 46.4909 297.549 46.8164C297.549 47.1484 297.624 47.4512 297.773 47.7246C297.923 47.998 298.148 48.2161 298.447 48.3789C298.753 48.5352 299.128 48.6133 299.57 48.6133C300.124 48.6133 300.612 48.4961 301.035 48.2617C301.458 48.0273 301.794 47.7409 302.041 47.4023C302.295 47.0638 302.432 46.735 302.451 46.416L303.223 47.2852C303.177 47.5586 303.053 47.8613 302.852 48.1934C302.65 48.5254 302.38 48.8444 302.041 49.1504C301.709 49.4499 301.312 49.7005 300.85 49.9023C300.394 50.0977 299.88 50.1953 299.307 50.1953C298.59 50.1953 297.962 50.0553 297.422 49.7754C296.888 49.4954 296.471 49.1211 296.172 48.6523C295.879 48.1771 295.732 47.6465 295.732 47.0605C295.732 46.4941 295.843 45.9961 296.064 45.5664C296.286 45.1302 296.605 44.7689 297.021 44.4824C297.438 44.1895 297.939 43.9681 298.525 43.8184C299.111 43.6686 299.766 43.5938 300.488 43.5938H302.588Z" fill="black"/>
<defs>
<clipPath id="clip0_8_70">
<rect width="66" height="63" fill="white" transform="translate(122)"/>
</clipPath>
</defs>
</svg>
