<?xml version="1.0" encoding="UTF-8"?>
<!DOCTYPE svg PUBLIC "-//W3C//DTD SVG 1.1//EN" "http://www.w3.org/Graphics/SVG/1.1/DTD/svg11.dtd">
<!-- Creator: CorelDRAW -->
<svg xmlns="http://www.w3.org/2000/svg" xml:space="preserve" width="30mm" height="28.5801mm" version="1.1" shape-rendering="geometricPrecision" text-rendering="geometricPrecision" image-rendering="optimizeQuality" fill-rule="evenodd" clip-rule="evenodd"
viewBox="0 0 2997496 2855626"
 xmlns:xlink="http://www.w3.org/1999/xlink"
 xmlns:xodm="http://www.corel.com/coreldraw/odm/2003">
 <g id="Слой_x0020_1">
  <metadata id="CorelCorpID_0Corel-Layer"/>
  <g id="_1875703174192">
   <polygon fill="none" stroke="#50B8C5" stroke-width="98897" stroke-linejoin="round" stroke-miterlimit="22.9256" points="1668603,1525884 1843807,1829365 2019012,2132846 2194231,1829375 2369451,1525903 2019026,1525895 "/>
   <polygon fill="none" stroke="#50B8C5" stroke-width="98897" stroke-linejoin="round" stroke-miterlimit="22.9256" points="1328893,1329749 978470,1329749 628046,1329747 803258,1026271 978470,722796 1153682,1026271 "/>
   <polygon fill="none" stroke="#50B8C5" stroke-width="98897" stroke-linejoin="round" stroke-miterlimit="22.9256" points="1498758,1231681 1673977,928209 1849197,624737 1498774,624728 1148350,624719 1323553,928200 "/>
   <polygon fill="none" stroke="#50B8C5" stroke-width="98897" stroke-linejoin="round" stroke-miterlimit="22.9256" points="1668606,1329745 1843818,1026269 2019030,722792 2194241,1026269 2369453,1329745 2019030,1329745 "/>
   <polygon fill="none" stroke="#50B8C5" stroke-width="98897" stroke-linejoin="round" stroke-miterlimit="22.9256" points="1328892,1525874 978468,1525865 628043,1525856 803248,1829337 978452,2132816 1153671,1829346 "/>
   <polygon fill="none" stroke="#50B8C5" stroke-width="98897" stroke-linejoin="round" stroke-miterlimit="22.9256" points="1498752,1623945 1673964,1927422 1849176,2230898 1498752,2230898 1148329,2230898 1323541,1927422 "/>
   <polygon fill="none" stroke="#50B8C5" stroke-width="98897" stroke-linejoin="round" stroke-miterlimit="7.6613" points="2109336,2289290 2281819,2588067 2646710,2090299 2895088,1525917 2551241,1525910 "/>
   <polygon fill="none" stroke="#50B8C5" stroke-width="98897" stroke-linejoin="round" stroke-miterlimit="7.6613" points="447400,1329743 102410,1329747 351058,764864 715651,267582 887574,565363 "/>
   <polygon fill="none" stroke="#50B8C5" stroke-width="98897" stroke-linejoin="round" stroke-miterlimit="7.6613" points="1939520,468292 2112025,169528 1498500,102408 885543,169496 1057461,467283 "/>
   <polygon fill="none" stroke="#50B8C5" stroke-width="98897" stroke-linejoin="round" stroke-miterlimit="7.6613" points="2109357,566351 2281849,267578 2646728,765356 2895090,1329743 2551242,1329743 "/>
   <polygon fill="none" stroke="#50B8C5" stroke-width="98897" stroke-linejoin="round" stroke-miterlimit="7.6613" points="447398,1525856 102406,1525844 351042,2090732 715621,2588025 887553,2290247 "/>
   <polygon fill="none" stroke="#50B8C5" stroke-width="98897" stroke-linejoin="round" stroke-miterlimit="7.6613" points="1939496,2387344 2111994,2686113 1498467,2753218 885511,2686113 1057436,2388332 "/>
  </g>
 </g>
</svg>
