<?xml version="1.0" encoding="UTF-8"?>
<!DOCTYPE svg PUBLIC "-//W3C//DTD SVG 1.1//EN" "http://www.w3.org/Graphics/SVG/1.1/DTD/svg11.dtd">
<!-- Creator: CorelDRAW -->
<svg xmlns="http://www.w3.org/2000/svg" xml:space="preserve" width="20mm" height="18.3341mm" version="1.1" shape-rendering="geometricPrecision" text-rendering="geometricPrecision" image-rendering="optimizeQuality" fill-rule="evenodd" clip-rule="evenodd"
viewBox="0 0 1997162 1830813"
 xmlns:xlink="http://www.w3.org/1999/xlink"
 xmlns:xodm="http://www.corel.com/coreldraw/odm/2003">
 <g id="Слой_x0020_1">
  <metadata id="CorelCorpID_0Corel-Layer"/>
  <polygon fill="none" stroke="#9D9E9E" stroke-width="111941" stroke-linejoin="round" stroke-miterlimit="22.9256" points="1147905,1001628 1346219,1345138 1544533,1688648 1742863,1345148 1941195,1001648 1544549,1001638 "/>
  <polygon fill="none" stroke="#50B8C5" stroke-width="111941" stroke-linejoin="round" stroke-miterlimit="22.9256" points="849263,829203 452619,829203 55972,829201 254295,485697 452617,142193 650941,485697 "/>
  <polygon fill="none" stroke="#50B8C5" stroke-width="111941" stroke-linejoin="round" stroke-miterlimit="22.9256" points="998592,742990 1196924,399490 1395254,55990 998610,55980 601965,55970 800280,399480 "/>
  <polygon fill="none" stroke="#9D9E9E" stroke-width="111941" stroke-linejoin="round" stroke-miterlimit="22.9256" points="1147907,829199 1346229,485695 1544553,142189 1742875,485695 1941197,829199 1544551,829199 "/>
  <polygon fill="none" stroke="#50B8C5" stroke-width="111941" stroke-linejoin="round" stroke-miterlimit="22.9256" points="849261,1001616 452617,1001606 55970,1001598 254285,1345106 452597,1688616 650929,1345116 "/>
  <polygon fill="none" stroke="#9D9E9E" stroke-width="111941" stroke-linejoin="round" stroke-miterlimit="22.9256" points="998588,1087833 1196910,1431339 1395232,1774843 998588,1774843 601944,1774843 800266,1431339 "/>
 </g>
</svg>
