<?xml version="1.0" encoding="UTF-8"?>
<!DOCTYPE svg PUBLIC "-//W3C//DTD SVG 1.1//EN" "http://www.w3.org/Graphics/SVG/1.1/DTD/svg11.dtd">
<!-- Creator: CorelDRAW -->
<svg xmlns="http://www.w3.org/2000/svg" xml:space="preserve" width="15mm" height="14.2641mm" version="1.1" shape-rendering="geometricPrecision" text-rendering="geometricPrecision" image-rendering="optimizeQuality" fill-rule="evenodd" clip-rule="evenodd"
viewBox="0 0 1498707 1425178"
 xmlns:xlink="http://www.w3.org/1999/xlink"
 xmlns:xodm="http://www.corel.com/coreldraw/odm/2003">
 <g id="Слой_x0020_1">
  <metadata id="CorelCorpID_0Corel-Layer"/>
  <polygon fill="none" stroke="#9D9E9E" stroke-width="51258" stroke-linejoin="round" stroke-miterlimit="22.9256" points="837387,763419 928195,920713 1019003,1078007 1109819,920718 1200636,763429 1019011,763425 "/>
  <polygon fill="none" stroke="#50B8C5" stroke-width="51258" stroke-linejoin="round" stroke-miterlimit="22.9256" points="661316,661763 479692,661763 298068,661762 388880,504471 479692,347180 570504,504471 "/>
  <polygon fill="none" stroke="#50B8C5" stroke-width="51258" stroke-linejoin="round" stroke-miterlimit="22.9256" points="749356,610934 840172,453645 930988,296356 749364,296351 567740,296347 658548,453640 "/>
  <polygon fill="none" stroke="#9D9E9E" stroke-width="51258" stroke-linejoin="round" stroke-miterlimit="22.9256" points="837388,661761 928200,504470 1019012,347178 1109824,504470 1200636,661761 1019012,661761 "/>
  <polygon fill="none" stroke="#50B8C5" stroke-width="51258" stroke-linejoin="round" stroke-miterlimit="22.9256" points="661315,763414 479691,763409 298066,763405 388874,920698 479683,1077991 570498,920703 "/>
  <polygon fill="none" stroke="#9D9E9E" stroke-width="51258" stroke-linejoin="round" stroke-miterlimit="22.9256" points="749353,814244 840165,971536 930977,1128827 749353,1128827 567729,1128827 658541,971536 "/>
  <polygon fill="none" stroke="#9D9E9E" stroke-width="51258" stroke-linejoin="round" stroke-miterlimit="7.6613" points="1065818,1159092 1155216,1313947 1344338,1055955 1473072,763437 1294857,763433 "/>
  <polygon fill="none" stroke="#50B8C5" stroke-width="51258" stroke-linejoin="round" stroke-miterlimit="7.6613" points="204439,661760 25631,661762 154505,368984 343473,111243 432580,265582 "/>
  <polygon fill="none" stroke="#50B8C5" stroke-width="51258" stroke-linejoin="round" stroke-miterlimit="7.6613" points="977803,215271 1067212,60422 749223,25634 431528,60405 520632,214748 "/>
  <polygon fill="none" stroke="#9D9E9E" stroke-width="51258" stroke-linejoin="round" stroke-miterlimit="7.6613" points="1065829,266095 1155231,111241 1344347,369239 1473073,661760 1294857,661760 "/>
  <polygon fill="none" stroke="#50B8C5" stroke-width="51258" stroke-linejoin="round" stroke-miterlimit="7.6613" points="204438,763405 25629,763398 154497,1056179 343457,1313925 432569,1159588 "/>
  <polygon fill="none" stroke="#9D9E9E" stroke-width="51258" stroke-linejoin="round" stroke-miterlimit="7.6613" points="977790,1209913 1067195,1364765 749205,1399545 431511,1364765 520620,1210425 "/>
 </g>
</svg>
